<?xml version="1.0" standalone="no"?>
<!DOCTYPE svg PUBLIC "-//W3C//DTD SVG 20010904//EN"
 "http://www.w3.org/TR/2001/REC-SVG-20010904/DTD/svg10.dtd">
<svg version="1.0" xmlns="http://www.w3.org/2000/svg"
 width="976.000000pt" height="976.000000pt" viewBox="0 0 976.000000 976.000000"
 preserveAspectRatio="xMidYMid meet">
<metadata>
Created by potrace 1.11, written by Peter Selinger 2001-2013
</metadata>
<g transform="translate(0.000000,976.000000) scale(0.100000,-0.100000)"
fill="#000000" stroke="none">
<path d="M9337 9754 c-1 -1 -40 -5 -87 -8 -47 -4 -107 -8 -135 -10 -27 -3 -90
-7 -140 -10 -49 -4 -110 -8 -135 -11 -96 -10 -206 -17 -232 -16 -35 2 -35 -11
-2 -55 15 -19 21 -34 15 -34 -6 0 -11 4 -11 8 0 5 -9 19 -19 31 -11 13 -22 28
-24 34 -3 11 -23 11 -132 1 -33 -2 -85 -6 -115 -8 -89 -6 -240 -17 -279 -21
-20 -2 -76 -6 -126 -10 -96 -6 -183 -12 -280 -20 -33 -3 -94 -7 -135 -10 -129
-10 -184 -15 -188 -20 -3 -3 52 -89 68 -105 19 -18 60 -80 53 -80 -4 0 -24 23
-43 51 -19 28 -40 56 -45 62 -6 7 -21 27 -34 45 -18 26 -28 31 -49 28 -15 -3
-72 -8 -127 -11 -55 -3 -120 -7 -145 -10 -44 -4 -124 -10 -265 -20 -38 -3 -95
-8 -125 -10 -30 -3 -95 -8 -145 -11 -49 -3 -110 -7 -135 -9 -92 -8 -226 -18
-252 -19 -32 -1 -35 -8 -13 -30 8 -8 15 -17 15 -21 0 -8 63 -89 73 -93 4 -2 7
-9 7 -15 0 -7 16 -30 34 -51 19 -21 43 -54 53 -73 9 -18 21 -33 25 -33 5 0 8
-5 8 -10 0 -11 10 -24 43 -61 9 -10 17 -23 17 -27 0 -4 13 -23 30 -42 16 -19
29 -40 30 -47 0 -6 3 -13 8 -15 4 -1 32 -37 61 -78 30 -41 57 -77 61 -80 3 -3
9 -12 12 -21 4 -11 16 -15 40 -14 18 2 71 6 118 9 47 3 108 8 135 10 115 10
234 19 290 21 33 2 89 6 125 9 170 15 209 18 260 21 30 2 91 7 135 11 44 4 99
7 122 8 23 0 40 3 38 6 -2 3 27 5 63 5 59 1 199 10 302 20 19 2 80 6 135 10
55 3 120 8 145 10 25 3 74 7 110 10 36 3 97 8 135 11 39 3 95 7 125 9 30 2 93
6 140 10 47 4 91 8 98 8 6 0 12 5 12 10 0 5 6 4 13 -2 8 -6 16 -9 18 -7 4 4
48 7 254 21 33 2 87 6 120 9 33 3 101 8 150 11 50 4 92 8 94 11 2 2 -1 9 -6
16 -15 18 -22 60 -28 148 -3 41 -7 100 -10 130 -3 30 -7 84 -10 120 -3 36 -7
76 -10 90 -3 14 -8 39 -11 55 -6 35 -44 103 -70 127 -28 24 -91 38 -163 35
-34 -1 -63 -3 -64 -3z m-690 -160 c-5 -5 61 -103 83 -124 14 -13 41 -62 37
-67 -3 -2 -11 6 -18 19 -6 12 -36 55 -66 94 -56 75 -60 84 -41 84 6 0 9 -3 5
-6z m-1187 -214 c11 -11 17 -20 13 -20 -5 0 -3 -4 2 -8 20 -14 76 -102 66
-102 -6 0 -11 4 -11 8 0 4 -7 17 -15 27 -83 108 -103 143 -55 95z m1422 -118
c4 -2 8 -8 8 -13 0 -6 9 -19 20 -31 11 -12 18 -24 15 -26 -8 -8 -130 162 -142
197 -3 9 16 -15 42 -54 27 -38 52 -71 57 -73z m-1262 -104 c30 -45 76 -110
102 -145 58 -77 72 -103 58 -103 -5 0 -10 6 -10 13 0 10 -13 28 -60 84 -5 7
-10 16 -10 22 0 5 -3 11 -7 13 -5 2 -24 26 -42 53 -19 28 -40 53 -45 57 -6 4
-7 8 -3 8 8 0 -2 13 -35 51 -19 21 -22 29 -10 29 4 0 32 -37 62 -82z m1330 9
c0 -8 9 -22 20 -32 11 -10 18 -20 16 -23 -7 -6 -30 18 -45 46 -7 14 -8 22 -1
22 5 0 10 -6 10 -13z m84 -119 c15 -21 23 -38 18 -38 -10 0 -62 74 -62 87 0 8
7 0 44 -49z"/>
<path d="M5897 9494 c-1 -1 -42 -5 -92 -9 -49 -4 -112 -8 -140 -10 -27 -3 -84
-7 -125 -9 -109 -8 -207 -15 -270 -21 -30 -3 -93 -7 -140 -10 -47 -3 -105 -7
-130 -10 -25 -3 -83 -7 -130 -10 -47 -4 -89 -10 -95 -16 -5 -6 -5 -9 3 -9 7 0
12 -6 12 -12 -1 -7 -9 -3 -19 9 -11 13 -27 21 -38 19 -10 -2 -66 -7 -123 -11
-213 -15 -344 -25 -402 -31 -56 -5 -189 -14 -273 -19 -33 -2 -60 -4 -60 -5 0
-1 -25 -3 -55 -5 -30 -2 -89 -6 -130 -10 -41 -3 -93 -8 -115 -9 -22 -2 -46 -4
-52 -5 -19 -1 -16 -12 12 -46 20 -25 216 -297 257 -359 7 -10 19 -24 26 -32 6
-7 12 -17 12 -22 0 -6 6 -13 13 -15 6 -3 7 -6 1 -6 -5 -1 -30 27 -54 62 -24
34 -47 64 -52 65 -4 2 -8 9 -8 15 0 7 -14 28 -30 47 -16 19 -30 38 -30 41 0 5
-13 22 -50 66 -5 7 -10 15 -10 18 0 3 -5 11 -10 18 -6 7 -33 42 -61 80 l-51
67 -67 -5 c-36 -3 -97 -8 -136 -10 -38 -3 -97 -7 -130 -10 -33 -3 -89 -7 -125
-10 -126 -9 -216 -15 -270 -20 -83 -7 -192 -15 -262 -20 -148 -10 -229 -18
-256 -24 -2 -1 16 -27 40 -58 24 -32 52 -71 63 -88 10 -16 22 -34 27 -40 5 -5
31 -41 59 -80 27 -38 55 -77 62 -85 38 -49 78 -112 75 -116 -3 -2 -21 19 -41
48 -63 91 -107 152 -120 168 -6 9 -28 38 -47 65 -19 28 -38 52 -42 53 -4 2 -8
9 -8 16 0 7 -11 25 -24 39 -13 14 -33 38 -44 54 -20 28 -23 29 -76 23 -31 -3
-81 -6 -111 -6 -30 1 -55 -1 -55 -4 0 -3 -15 -6 -32 -6 -36 -1 -172 -11 -258
-19 -30 -3 -86 -7 -125 -10 -38 -2 -104 -7 -145 -10 -41 -4 -97 -8 -125 -10
-27 -2 -95 -7 -150 -11 -55 -4 -119 -7 -142 -8 -24 0 -43 -4 -43 -7 0 -3 -24
-5 -53 -5 -46 0 -143 -6 -287 -19 -139 -12 -183 -16 -260 -21 -47 -3 -103 -7
-125 -9 -22 -2 -54 -4 -72 -4 -28 -1 -31 -4 -29 -31 2 -22 -6 -38 -27 -57 -53
-51 -72 -107 -74 -220 -2 -96 0 -106 27 -159 18 -33 30 -71 30 -94 0 -25 5
-40 16 -44 13 -5 15 -24 12 -121 -2 -63 0 -115 4 -115 4 0 5 -7 2 -15 -9 -23
-10 -105 -1 -105 5 0 5 -4 2 -10 -5 -8 -9 -256 -5 -280 1 -3 3 -23 5 -45 2
-22 11 -58 21 -80 16 -38 23 -113 11 -131 -5 -9 -9 -257 -8 -512 0 -94 -2
-121 -12 -116 -9 5 -9 4 0 -7 7 -7 13 -22 13 -33 0 -17 -2 -18 -10 -6 -8 12
-9 10 -7 -7 2 -12 7 -26 12 -30 4 -5 5 -2 0 6 -5 9 -4 12 3 8 5 -4 8 -16 5
-27 -3 -11 -9 -18 -12 -15 -4 2 -8 -2 -8 -10 0 -8 4 -12 9 -9 4 3 8 -4 8 -15
0 -10 -6 -22 -12 -24 -10 -4 -10 -6 0 -6 6 -1 12 -10 12 -22 0 -13 -4 -18 -12
-14 -7 4 -4 -1 6 -9 11 -9 15 -16 9 -16 -6 0 -9 -10 -6 -22 4 -19 3 -20 -6 -8
-7 9 -11 10 -11 3 0 -6 4 -15 10 -18 5 -3 10 -15 10 -26 0 -11 -4 -17 -10 -14
-5 3 -10 1 -10 -4 0 -6 4 -11 9 -11 6 0 10 -34 10 -75 0 -56 -3 -74 -12 -69
-8 5 -8 3 0 -7 17 -17 17 -56 1 -62 -10 -4 -10 -6 0 -6 6 -1 12 -12 12 -25 0
-13 -6 -27 -12 -29 -10 -4 -10 -6 0 -6 19 -1 15 -49 -5 -54 -17 -4 -17 -5 0
-6 9 0 17 -8 17 -17 0 -11 -6 -14 -17 -10 -17 6 -17 5 -1 -8 18 -13 25 -56 10
-56 -4 0 -14 6 -22 13 -12 10 -12 9 -1 -5 7 -9 9 -23 5 -30 -6 -10 -3 -9 9 1
15 12 17 11 17 -14 0 -21 -4 -26 -17 -21 -16 6 -17 5 -2 -7 21 -16 27 -142 6
-131 -9 5 -9 4 1 -7 6 -7 12 -22 12 -33 0 -17 -2 -18 -10 -6 -8 12 -9 10 -7
-7 2 -12 7 -26 12 -30 4 -5 5 -2 0 6 -5 9 -4 12 3 8 5 -4 8 -16 5 -27 -3 -11
-9 -18 -12 -15 -4 2 -8 -2 -8 -10 0 -8 4 -12 9 -9 4 3 8 -4 8 -15 0 -10 -6
-22 -12 -24 -10 -4 -10 -6 0 -6 6 -1 12 -10 12 -22 0 -13 -4 -18 -12 -14 -7 4
-4 -1 6 -9 11 -9 15 -16 9 -16 -6 0 -9 -10 -6 -22 4 -19 3 -20 -6 -8 -7 9 -11
10 -11 3 0 -6 5 -15 10 -18 6 -3 10 -15 10 -26 0 -11 -4 -17 -10 -14 -5 3 -10
1 -10 -4 0 -6 4 -11 9 -11 6 0 10 -34 10 -75 0 -56 -3 -74 -12 -69 -8 5 -8 3
1 -7 16 -17 16 -56 0 -62 -10 -4 -10 -6 0 -6 16 -1 16 -48 0 -54 -10 -4 -10
-6 0 -6 19 -1 15 -49 -5 -54 -17 -4 -17 -5 0 -6 9 0 17 -8 17 -17 0 -11 -6
-14 -17 -10 -17 6 -17 5 0 -8 17 -13 24 -56 9 -56 -4 0 -14 6 -22 13 -12 10
-12 9 -1 -5 7 -9 9 -23 5 -30 -6 -10 -3 -9 9 1 15 12 17 11 17 -14 0 -21 -4
-26 -17 -21 -16 6 -17 5 -2 -7 21 -16 27 -142 6 -131 -9 5 -9 4 1 -7 6 -7 12
-22 12 -33 0 -17 -2 -18 -10 -6 -8 12 -9 10 -7 -7 2 -12 7 -26 12 -30 4 -5 5
-2 0 6 -5 9 -4 12 3 8 5 -4 8 -16 5 -27 -3 -11 -9 -18 -12 -15 -4 2 -8 -2 -8
-10 0 -8 4 -12 9 -9 4 3 8 -4 8 -15 0 -10 -6 -22 -12 -24 -10 -4 -10 -6 0 -6
6 -1 12 -10 12 -22 0 -13 -4 -18 -12 -14 -7 4 -4 -1 6 -9 11 -9 15 -16 9 -16
-6 0 -9 -10 -6 -22 4 -19 3 -20 -6 -8 -7 9 -11 10 -11 3 0 -6 5 -15 10 -18 6
-3 10 -15 10 -26 0 -11 -4 -17 -10 -14 -5 3 -10 1 -10 -4 0 -6 4 -11 9 -11 6
0 10 -34 10 -75 0 -56 -3 -74 -12 -69 -8 5 -8 3 1 -7 6 -7 12 -23 12 -35 0
-12 -6 -25 -12 -27 -10 -4 -10 -6 0 -6 16 -1 16 -48 0 -54 -10 -4 -10 -6 0 -6
19 -1 15 -49 -5 -54 -15 -4 -16 -5 -2 -6 13 -1 17 -12 17 -43 1 -24 -5 -46
-11 -50 -9 -6 -9 -8 1 -8 6 0 12 -12 12 -26 0 -21 -4 -25 -17 -20 -17 6 -17 5
-1 -8 21 -15 25 -61 6 -50 -10 6 -10 4 0 -7 14 -16 16 -75 2 -84 -5 -3 -10
-12 -10 -18 0 -8 3 -7 9 2 6 8 9 -11 9 -53 0 -36 -4 -64 -8 -61 -5 3 -12 1
-15 -5 -4 -6 -1 -9 7 -8 21 5 22 -44 1 -60 -16 -13 -16 -14 0 -9 13 5 17 1 17
-16 0 -13 -6 -29 -12 -36 -10 -11 -10 -13 0 -7 7 5 12 1 12 -9 0 -10 -5 -14
-12 -9 -10 6 -10 4 0 -7 15 -17 16 -100 1 -97 -6 2 -13 -3 -14 -10 -2 -7 -1
-8 2 -2 9 20 23 -1 23 -36 0 -25 -4 -33 -12 -28 -10 6 -10 4 0 -7 16 -17 16
-56 0 -62 -10 -4 -10 -6 0 -6 6 -1 12 -12 12 -25 0 -13 -6 -27 -12 -29 -10 -4
-10 -6 0 -6 19 -1 15 -49 -5 -54 -17 -4 -17 -5 0 -6 9 0 17 -8 17 -17 0 -11
-6 -14 -17 -10 -17 6 -17 5 0 -8 17 -13 24 -56 9 -56 -4 0 -14 6 -22 13 -12
10 -12 9 -1 -5 7 -9 9 -23 5 -30 -6 -10 -3 -9 9 1 15 12 17 11 17 -14 0 -21
-4 -26 -17 -21 -16 6 -17 5 -2 -7 21 -16 27 -142 6 -131 -9 5 -9 4 1 -7 6 -7
12 -22 12 -33 0 -17 -2 -18 -10 -6 -8 12 -9 10 -7 -7 2 -12 7 -26 12 -30 4 -5
5 -2 0 6 -5 9 -4 12 3 8 5 -4 8 -16 5 -27 -3 -11 -9 -18 -12 -15 -4 2 -8 -2
-8 -10 0 -8 4 -12 9 -9 4 3 8 -4 8 -15 0 -10 -6 -22 -12 -24 -10 -4 -10 -6 0
-6 6 -1 12 -10 12 -22 0 -13 -4 -18 -12 -14 -7 4 -4 -1 6 -9 11 -9 15 -16 9
-16 -6 0 -9 -10 -6 -23 4 -18 3 -19 -6 -7 -7 9 -11 10 -11 3 0 -6 5 -15 10
-18 6 -3 10 -15 10 -26 0 -11 -4 -17 -10 -14 -5 3 -10 1 -10 -4 0 -6 4 -11 9
-11 6 0 10 -34 10 -75 0 -56 -3 -74 -12 -69 -8 5 -8 3 1 -7 16 -17 16 -56 0
-62 -10 -4 -10 -6 0 -6 6 -1 12 -12 12 -25 0 -13 -6 -27 -12 -29 -10 -4 -10
-6 0 -6 19 -1 15 -49 -6 -54 -16 -4 -16 -5 1 -6 9 0 17 -8 17 -17 0 -11 -6
-14 -17 -10 -17 6 -17 5 0 -8 17 -13 24 -56 9 -56 -4 0 -14 6 -22 13 -12 10
-12 9 -1 -5 7 -9 9 -23 5 -30 -6 -10 -3 -9 9 1 15 12 17 11 17 -14 0 -21 -4
-26 -17 -21 -16 6 -17 5 -2 -7 21 -16 27 -142 6 -131 -9 5 -9 4 1 -7 6 -7 12
-22 12 -33 0 -17 -2 -18 -10 -6 -8 12 -9 10 -7 -7 2 -12 7 -26 12 -30 4 -5 5
-2 0 6 -5 9 -4 12 3 8 5 -4 8 -16 5 -27 -3 -11 -9 -18 -12 -15 -4 2 -8 -2 -8
-10 0 -8 4 -12 9 -9 4 3 8 -4 8 -15 0 -10 -6 -22 -12 -24 -10 -4 -10 -6 0 -6
6 -1 12 -10 12 -22 0 -13 -4 -18 -12 -14 -7 4 -4 -1 6 -9 11 -9 15 -16 9 -16
-6 0 -9 -10 -6 -23 4 -18 3 -19 -6 -7 -7 9 -11 10 -11 3 0 -6 5 -15 10 -18 6
-3 10 -15 10 -26 0 -11 -5 -17 -10 -14 -6 3 -10 1 -10 -4 0 -6 4 -11 9 -11 6
0 10 -34 10 -75 0 -56 -3 -74 -12 -69 -8 5 -8 3 1 -7 16 -17 16 -56 0 -62 -10
-4 -10 -6 0 -6 6 -1 12 -12 12 -25 0 -13 -6 -27 -12 -29 -10 -4 -10 -6 0 -6
19 -1 15 -49 -5 -54 -17 -4 -17 -5 0 -6 9 0 17 -8 17 -17 0 -11 -6 -14 -17
-10 -17 6 -17 5 -1 -8 18 -13 25 -56 10 -56 -4 0 -14 6 -22 12 -12 11 -12 10
-1 -4 7 -9 9 -23 5 -30 -6 -10 -3 -9 9 1 15 12 17 11 17 -14 0 -21 -4 -26 -17
-21 -16 6 -17 5 -2 -7 21 -16 27 -142 6 -131 -9 5 -9 4 1 -7 6 -7 12 -22 12
-33 0 -17 -2 -18 -10 -6 -8 12 -9 10 -7 -7 2 -12 7 -26 12 -30 4 -5 5 -2 0 6
-5 9 -4 12 3 8 5 -4 8 -16 5 -27 -3 -11 -9 -18 -12 -15 -4 2 -8 -2 -8 -10 0
-8 4 -12 9 -9 4 3 8 -4 8 -15 0 -10 -6 -22 -12 -24 -10 -4 -10 -6 0 -6 6 -1
12 -10 12 -22 0 -13 -4 -18 -12 -14 -7 4 -4 -1 6 -9 11 -9 15 -16 9 -16 -6 0
-9 -10 -6 -22 4 -19 3 -20 -6 -8 -7 9 -11 10 -11 3 0 -6 5 -15 10 -18 6 -3 10
-15 10 -26 0 -11 -5 -17 -10 -14 -6 3 -10 1 -10 -4 0 -6 4 -11 9 -11 6 0 10
-34 10 -75 0 -56 -3 -74 -12 -68 -9 5 -9 3 -1 -8 6 -8 14 -27 16 -42 4 -23 2
-27 -10 -22 -14 5 -13 3 1 -13 16 -17 15 -19 -1 -37 -16 -18 -16 -18 2 -4 18
13 19 12 13 -3 -3 -10 -2 -18 3 -18 6 0 10 -9 10 -21 0 -11 -4 -18 -8 -15 -4
2 -9 -4 -9 -15 -1 -10 3 -19 8 -19 6 0 7 5 3 11 -4 7 -1 10 6 7 7 -2 15 -15
17 -29 2 -19 1 -21 -7 -9 -8 13 -10 12 -10 -2 0 -10 -4 -18 -10 -18 -5 0 -10
-5 -10 -12 0 -9 3 -9 12 0 7 7 19 12 28 12 13 -1 12 -3 -2 -14 -10 -7 -18 -19
-18 -27 1 -10 4 -9 11 4 5 9 15 17 21 17 7 0 6 -5 -2 -15 -7 -8 -9 -15 -4 -15
5 0 2 -5 -6 -10 -11 -7 -11 -10 -2 -10 7 0 10 -5 6 -11 -4 -8 -13 -4 -25 12
-15 20 -20 22 -31 11 -11 -11 -10 -12 6 -6 13 5 17 4 13 -3 -8 -12 20 -27 42
-24 18 3 5 -16 -21 -30 -18 -10 -20 -9 -15 5 3 8 2 18 -2 20 -5 3 -7 -5 -6
-17 3 -30 2 -29 24 -17 12 6 22 6 25 1 4 -5 -6 -14 -21 -20 l-28 -11 30 6 c29
5 29 5 11 -15 -15 -17 -16 -23 -6 -36 7 -8 19 -15 26 -15 8 0 14 -5 14 -11 0
-5 -6 -7 -13 -3 -9 6 -9 5 0 -8 7 -8 10 -18 6 -21 -3 -4 2 -16 12 -27 10 -11
13 -20 8 -20 -6 0 -16 7 -23 15 -7 8 -16 12 -21 9 -12 -7 -11 -34 1 -34 5 0 6
8 3 17 -5 12 4 8 30 -11 20 -16 34 -32 31 -37 -3 -5 0 -9 6 -9 7 0 10 6 7 14
-3 8 1 17 9 20 9 3 13 10 10 15 -4 5 0 11 6 14 7 2 9 8 5 13 -4 5 -12 2 -17
-6 -6 -8 -10 -10 -10 -5 0 6 4 16 9 23 6 10 10 10 20 -2 10 -12 10 -21 -3 -47
-20 -39 -20 -43 -1 -36 8 4 17 2 20 -2 7 -12 -22 -22 -42 -14 -14 6 -15 4 -5
-8 7 -8 19 -23 26 -34 13 -18 14 -17 11 9 -2 17 1 26 8 23 7 -2 11 -11 9 -20
-1 -8 2 -18 7 -21 11 -7 11 36 -1 44 -4 3 1 11 12 17 16 11 18 9 18 -15 -1
-43 1 -49 17 -49 8 0 12 4 9 9 -7 11 3 10 28 -3 12 -6 18 -7 14 -1 -6 10 23
26 32 17 3 -3 0 -5 -6 -5 -7 0 -12 -3 -12 -7 0 -5 17 -8 39 -8 24 -1 37 3 35
10 -3 6 5 11 16 11 11 0 19 -5 16 -11 -2 -7 2 -12 9 -12 7 0 12 5 11 11 0 6 4
11 9 11 6 0 9 -5 9 -11 -1 -6 4 -11 11 -11 7 0 11 9 9 21 -3 12 -2 15 2 8 3
-6 11 -9 17 -5 6 4 8 0 5 -9 -4 -8 0 -15 8 -15 7 0 11 4 8 9 -3 4 2 8 10 8 8
0 18 -4 21 -10 9 -15 8435 -14 8435 1 0 8 4 8 13 2 6 -6 44 -9 82 -9 64 1 70
3 68 22 -1 13 4 20 17 21 11 1 20 -2 20 -8 0 -5 -4 -9 -8 -9 -5 0 -9 -6 -9
-13 0 -8 6 -14 13 -14 7 0 10 7 6 15 -3 10 -1 13 5 9 6 -4 18 -1 26 7 12 13
16 12 27 -9 7 -14 17 -22 21 -19 5 2 -1 14 -11 24 -11 11 -20 26 -20 33 1 7 8
3 18 -8 17 -21 68 -33 56 -14 -3 6 -12 8 -19 5 -8 -3 -19 2 -27 11 -11 14 -10
15 8 9 26 -8 54 18 29 28 -8 3 -15 11 -15 17 0 8 4 8 13 2 6 -6 20 -10 30 -10
15 0 16 2 2 17 -9 10 -13 24 -9 33 8 22 25 11 17 -11 -5 -14 -3 -15 7 -5 11
10 11 15 0 28 -11 13 -10 19 9 38 11 13 21 27 21 31 0 5 -9 -2 -20 -15 -23
-29 -26 -18 -4 16 10 16 21 22 32 18 15 -6 15 -4 4 9 -11 14 -10 18 6 27 11 6
23 7 27 3 5 -4 5 -1 1 6 -4 7 -13 9 -19 5 -7 -3 -5 2 4 13 9 10 20 29 23 42 4
12 12 22 17 22 5 0 8 3 7 8 -3 13 14 62 21 62 4 0 8 6 9 13 5 49 15 104 21
117 4 8 7 1581 6 3495 0 2363 3 3482 10 3487 6 5 11 131 12 354 2 294 5 350
18 370 15 23 15 24 -12 24 -186 2 -615 1 -618 -2 -11 -12 -93 -146 -98 -160
-4 -10 -12 -18 -19 -17 -10 0 -10 2 0 6 6 2 12 10 12 16 0 7 20 43 45 82 24
38 42 71 40 73 -3 3 -828 4 -1201 2 -44 0 -52 -3 -64 -25 -7 -14 -18 -25 -23
-25 -6 0 -2 9 8 20 10 11 16 23 13 26 -4 4 -1139 8 -1245 4 -6 0 -15 -9 -18
-20 -3 -11 -11 -20 -16 -20 -6 0 -6 8 1 20 6 11 7 20 3 20 -32 1 -1024 1
-1125 1 l-126 -1 -23 -37 c-13 -21 -23 -41 -23 -44 -1 -4 -13 -26 -28 -49 -16
-23 -28 -46 -28 -51 0 -5 -4 -9 -8 -9 -5 0 -14 -12 -21 -27 -20 -45 -95 -162
-104 -163 -4 0 9 26 29 58 21 31 50 79 67 107 16 27 42 69 59 92 16 24 26 43
23 43 -3 0 6 18 20 40 14 22 23 40 20 41 -12 1 -106 0 -112 -2 -5 -1 -12 -1
-18 1 -32 6 -1120 0 -1122 -7 -2 -4 -13 -23 -26 -42 -56 -87 -68 -107 -74
-123 -3 -10 -9 -15 -14 -12 -5 3 -1 17 9 32 70 104 94 143 90 148 -6 5 -2519
8 -2522 2 -1 -2 -15 -23 -32 -48 -17 -25 -34 -55 -38 -67 -4 -11 -13 -24 -22
-27 -8 -3 1 18 21 49 19 31 35 59 35 64 0 5 6 11 13 14 39 14 -28 19 -232 19
-213 0 -229 1 -234 18 -10 38 2 41 203 55 41 3 107 8 145 11 39 3 86 7 105 9
19 1 38 3 42 4 7 1 -10 25 -39 56 -7 7 -9 15 -6 19 4 3 2 6 -4 6 -6 0 -13 7
-17 15 -10 28 3 15 44 -41 l41 -55 77 6 c42 3 104 8 137 10 33 3 92 7 130 10
67 5 116 9 263 20 37 3 92 8 122 10 30 3 91 7 135 10 44 3 103 8 130 10 28 3
93 7 145 10 52 3 96 10 98 15 2 6 10 6 23 -1 11 -5 23 -8 27 -5 5 3 51 7 103
10 52 4 114 8 139 11 25 2 86 7 135 10 50 3 113 8 140 10 117 10 193 16 245
20 82 5 219 15 270 20 25 2 79 7 120 10 41 4 76 7 77 8 1 2 -77 110 -97 134
-5 7 -10 17 -10 23 0 5 -3 10 -8 10 -9 0 -35 40 -29 46 2 3 22 -21 43 -53 21
-32 41 -60 44 -63 3 -3 17 -21 30 -40 40 -57 46 -61 92 -56 24 3 77 8 118 11
41 3 107 8 145 11 39 3 99 7 135 9 36 2 65 4 65 5 0 1 29 3 65 5 36 1 97 6
135 9 39 4 99 9 135 12 36 2 94 7 130 10 147 12 206 16 232 15 38 -2 41 11 13
49 -28 38 -29 40 -15 40 6 0 10 -7 10 -15 0 -8 3 -15 8 -15 4 0 15 -14 24 -30
9 -16 23 -28 30 -25 14 5 110 13 223 20 65 4 115 7 270 20 33 2 94 7 135 10
41 3 95 8 120 10 25 2 83 7 130 10 162 11 354 26 358 29 1 2 -22 36 -52 77
-62 84 -70 95 -172 239 -40 58 -78 110 -84 117 -5 7 -10 15 -10 18 0 4 -6 12
-12 19 -7 7 -49 63 -93 124 l-80 110 -63 -1 c-35 -1 -64 -3 -65 -3z m-1059
-179 c18 -25 30 -45 27 -45 -9 0 -35 27 -35 36 0 4 -10 18 -22 31 -12 13 -17
23 -12 23 5 -1 24 -21 42 -45z m78 -112 c21 -32 41 -60 44 -63 17 -17 31 -40
24 -40 -5 0 -20 17 -34 38 -14 20 -27 39 -30 42 -11 9 -50 68 -50 74 0 13 8 4
46 -51z m-3918 -115 c7 -7 12 -19 12 -27 -1 -12 -4 -11 -12 4 -6 11 -16 23
-22 27 -7 5 -8 8 0 8 5 0 15 -5 22 -12z m4089 -126 c31 -45 62 -87 70 -93 7
-6 13 -18 13 -25 0 -8 3 -14 8 -14 4 0 13 -9 20 -20 23 -37 -3 -21 -28 18 -13
20 -38 56 -55 78 -16 23 -37 52 -45 64 -8 13 -30 43 -47 67 -36 47 -45 74 -13
33 12 -14 46 -62 77 -108z m-2470 -274 c17 -24 31 -47 31 -51 0 -5 9 -15 19
-23 17 -14 16 -14 -4 -4 -13 6 -22 14 -20 18 2 7 -51 82 -68 94 -7 5 -6 8 1 8
6 0 24 -19 41 -42z m79 -113 c9 -8 12 -15 7 -15 -4 0 1 -7 11 -15 11 -8 15
-15 9 -15 -7 0 -21 14 -33 30 -23 32 -19 40 6 15z m-83 -450 c-58 -96 -110
-175 -115 -175 -5 0 -4 6 2 13 18 20 149 237 144 237 -3 0 4 9 15 21 11 12 25
34 31 50 7 16 16 29 21 29 5 0 -39 -79 -98 -175z m3865 91 c-13 -20 -37 -59
-55 -86 -17 -28 -29 -50 -26 -50 3 0 -1 -8 -9 -17 -20 -23 -98 -153 -98 -163
0 -4 -7 -11 -16 -14 -16 -6 -16 -6 27 59 14 22 35 56 45 75 10 19 24 38 29 42
6 4 10 11 10 15 1 14 107 184 112 179 2 -2 -7 -20 -19 -40z m1270 -1 c-11 -20
-22 -34 -24 -32 -7 6 27 67 36 67 5 0 0 -16 -12 -35z m-38 -64 c-12 -24 -30
-36 -30 -22 0 6 5 11 10 11 6 0 10 7 10 15 0 8 5 15 10 15 7 0 7 -6 0 -19z
m-6355 -11 c-3 -5 -11 -10 -16 -10 -6 0 -7 5 -4 10 3 6 11 10 16 10 6 0 7 -4
4 -10z m-21 -35 c-7 -16 -24 -21 -24 -6 0 8 7 13 27 20 1 1 0 -6 -3 -14z
m2491 -77 c-26 -46 -56 -94 -66 -107 -11 -13 -19 -30 -19 -37 0 -8 -4 -14 -9
-14 -5 0 -29 -36 -52 -80 -24 -44 -47 -80 -52 -80 -5 0 1 15 12 33 12 17 34
54 49 81 33 59 37 66 85 137 20 31 37 61 37 68 0 6 3 11 8 11 4 0 15 19 25 41
10 23 21 39 24 35 3 -3 -16 -43 -42 -88z m5135 88 c0 -3 -4 -8 -10 -11 -5 -3
-10 -1 -10 4 0 6 5 11 10 11 6 0 10 -2 10 -4z m-1302 -48 c-13 -24 -30 -48
-38 -55 -8 -7 -12 -13 -7 -13 4 0 -8 -23 -28 -51 -19 -28 -35 -57 -35 -65 0
-8 -4 -14 -8 -14 -5 0 -17 -18 -28 -40 -10 -22 -23 -40 -27 -40 -9 0 23 59 82
150 19 30 35 57 36 60 0 3 8 17 18 33 9 15 24 38 32 52 26 42 28 28 3 -17z
m1267 -5 c-8 -16 -33 -57 -55 -92 -22 -34 -40 -67 -40 -71 0 -4 -6 -10 -14
-13 -8 -3 8 29 35 71 27 42 54 89 60 105 6 15 15 27 20 27 5 0 3 -12 -6 -27z
m-7615 7 c0 -5 -5 -10 -11 -10 -5 0 -7 5 -4 10 3 6 8 10 11 10 2 0 4 -4 4 -10z
m-52 -87 c-22 -38 -47 -76 -56 -85 -8 -10 -11 -18 -6 -18 5 0 3 -4 -3 -8 -7
-4 -23 -26 -35 -49 -52 -94 -110 -184 -116 -179 -3 3 2 14 10 23 8 10 28 42
44 70 16 29 32 53 37 53 4 0 7 6 7 13 0 7 15 35 33 62 18 28 50 80 72 117 22
37 43 68 47 68 4 0 -12 -30 -34 -67z m1230 -65 c-8 -13 -39 -63 -69 -113 -30
-49 -60 -96 -66 -103 -7 -7 -13 -18 -13 -23 0 -13 -60 -106 -60 -94 0 6 11 27
25 48 14 20 24 37 21 37 -3 0 22 42 54 93 33 50 69 111 82 135 12 23 26 42 31
42 5 0 3 -10 -5 -22z m2536 -10 c-4 -7 -20 -32 -36 -55 -15 -23 -28 -46 -28
-51 0 -6 -4 -12 -9 -14 -8 -3 -40 -55 -85 -139 -13 -25 -31 -51 -40 -58 -16
-14 100 186 155 265 16 24 26 44 22 44 -4 0 -1 5 7 10 20 13 23 12 14 -2z
m1223 -74 c-12 -20 -32 -52 -45 -72 -12 -21 -31 -53 -41 -73 -11 -19 -27 -41
-35 -48 -9 -7 -13 -17 -10 -22 3 -5 0 -9 -5 -9 -6 0 -11 -7 -11 -17 0 -9 -3
-13 -7 -9 -8 8 26 76 39 76 4 0 8 4 8 9 0 12 70 131 87 149 6 6 15 21 18 32 3
11 10 20 15 20 5 0 -1 -16 -13 -36z m2522 -26 c-22 -35 -42 -71 -45 -80 -4
-10 -11 -18 -16 -18 -5 0 -1 15 11 33 11 17 33 53 48 79 15 27 31 48 35 48 4
0 -11 -28 -33 -62z m-1289 -35 c0 -5 -9 -19 -20 -33 -16 -20 -19 -21 -14 -5
11 31 34 58 34 38z m-40 -73 c0 -5 -4 -10 -8 -10 -5 0 -17 -18 -27 -40 -10
-22 -25 -46 -33 -52 -8 -7 1 16 19 50 31 57 49 76 49 52z m-3839 -36 c-11 -15
-21 -24 -21 -20 0 12 33 57 37 52 3 -3 -4 -17 -16 -32z m5064 -28 c-19 -31
-38 -56 -41 -56 -4 0 2 12 12 28 9 15 27 41 38 59 11 17 22 30 24 28 2 -1 -13
-28 -33 -59z m-7635 -25 c-5 -11 -15 -23 -22 -27 -7 -5 -8 -2 -3 7 21 37 44
55 25 20z m2550 11 c0 -5 -9 -17 -20 -27 -19 -17 -19 -17 -7 9 12 25 27 35 27
18z m-3339 -7242 c1 -5 2 -15 3 -20 0 -6 6 -14 11 -18 24 -17 14 -75 -11 -65
-12 5 -12 7 2 18 14 9 14 14 4 20 -9 5 -11 4 -6 -3 4 -7 3 -12 -3 -12 -18 0
-23 20 -6 26 11 5 13 9 6 14 -15 8 -23 50 -10 50 5 0 10 -4 10 -10z m44 -107
c-16 -13 -17 -15 -2 -10 9 4 17 2 17 -4 0 -6 4 -8 9 -5 5 3 14 -1 21 -9 12
-14 9 -18 -7 -12 -5 1 -7 4 -6 7 1 3 -10 6 -24 7 -19 1 -22 -1 -12 -8 12 -7
11 -9 -2 -9 -9 0 -18 3 -22 6 -10 11 16 54 32 54 13 -1 12 -4 -4 -17z m-35
-13 c0 -5 -4 -10 -10 -10 -5 0 -10 5 -10 10 0 6 5 10 10 10 6 0 10 -4 10 -10z
m-1 -29 c13 -13 23 -16 35 -9 11 6 22 6 31 -2 8 -6 19 -9 24 -6 5 4 16 -3 24
-14 7 -11 17 -18 20 -15 4 3 5 2 3 -1 -6 -8 17 -33 26 -28 3 2 15 -6 25 -18
10 -13 25 -24 33 -26 19 -5 31 -23 25 -42 -2 -8 0 -22 5 -30 9 -13 10 -13 10
0 0 13 1 13 10 0 8 -12 10 -12 10 -1 0 8 3 12 6 8 7 -7 -10 -39 -21 -39 -4 0
-11 6 -16 14 -9 13 -49 21 -49 8 0 -4 -13 -7 -30 -7 -26 0 -27 2 -12 13 13 9
19 9 25 1 6 -8 7 -5 3 7 -5 14 -2 17 10 12 24 -9 37 3 22 22 -11 14 -10 15 6
9 16 -6 17 -5 6 8 -7 9 -16 12 -19 8 -3 -4 -12 -9 -19 -11 -10 -2 -12 4 -7 20
5 19 4 20 -5 8 -10 -13 -11 -13 -7 1 4 12 -1 15 -20 13 -17 -2 -23 2 -19 11 8
21 -22 41 -37 26 -9 -10 -8 -11 5 -6 13 5 16 2 13 -14 -2 -12 0 -21 6 -21 5 0
9 -4 9 -8 0 -4 -9 -8 -20 -8 -13 0 -19 5 -15 14 5 13 -15 52 -27 52 -4 0 -12
-9 -18 -21 -9 -15 -8 -24 1 -35 8 -10 8 -14 0 -14 -20 0 -25 5 -28 23 -4 22
34 60 53 53 22 -9 16 0 -13 19 -16 10 -25 14 -21 10 4 -4 3 -16 -3 -26 -11
-21 -41 -15 -32 7 3 8 -5 18 -21 25 -14 7 -26 16 -26 21 0 14 19 9 39 -11z
m9230 -42 c-8 -5 -10 -9 -6 -9 4 0 3 -9 -3 -21 -9 -15 -8 -24 1 -35 14 -16 -2
-19 -18 -3 -6 6 -9 18 -6 27 5 10 2 13 -6 8 -7 -5 -10 -15 -7 -23 4 -9 2 -12
-7 -6 -6 4 -4 -5 6 -20 23 -35 22 -37 -12 -32 -23 3 -34 -2 -47 -22 l-17 -26
-13 24 c-16 29 -18 53 -4 44 6 -4 8 -10 6 -14 -3 -4 5 -7 17 -6 14 1 21 8 19
18 -2 11 2 15 13 11 8 -3 12 -11 8 -17 -3 -6 -1 -7 5 -3 6 4 9 13 6 20 -6 16
-36 14 -42 -2 -2 -7 -8 -12 -14 -12 -6 0 -3 9 7 20 10 11 23 20 29 20 7 0 19
9 29 20 9 11 24 20 32 20 9 0 13 5 10 10 -9 14 4 32 17 24 6 -4 5 -10 -3 -15z
m-9209 -29 c0 -5 -4 -10 -10 -10 -5 0 -10 5 -10 10 0 6 5 10 10 10 6 0 10 -4
10 -10z m169 -73 c3 0 12 -5 19 -13 12 -13 10 -14 -11 -9 -17 5 -26 2 -31 -10
-3 -9 -11 -13 -17 -9 -8 5 -6 10 5 16 9 5 16 14 16 21 0 8 -3 8 -9 -2 -6 -9
-10 -10 -16 -2 -5 9 -10 9 -21 0 -10 -8 -18 -9 -27 0 -8 6 -16 10 -18 8 -2 -1
2 4 10 11 18 15 31 16 31 1 0 -5 -5 -7 -12 -3 -7 5 -8 3 -3 -6 6 -10 11 -9 22
5 7 11 13 24 13 29 1 6 10 0 22 -14 11 -14 23 -24 27 -23z m109 -25 c13 -7 27
-10 32 -7 6 4 10 0 10 -7 0 -8 -9 -14 -20 -15 -11 -1 -18 2 -15 8 6 8 -8 13
-27 10 -5 0 -8 5 -8 12 0 8 -4 7 -10 -3 -11 -17 -13 -9 -4 15 4 9 10 13 13 8
3 -4 16 -14 29 -21z m8777 9 c3 -5 1 -12 -5 -16 -5 -3 -10 -1 -10 5 0 6 -5 8
-11 4 -6 -3 -8 -17 -4 -33 6 -25 6 -25 -9 -6 -10 12 -14 14 -11 4 5 -13 -4
-15 -54 -15 -33 0 -57 4 -54 9 3 4 11 6 19 3 7 -3 16 -1 19 5 4 5 11 7 16 4 5
-4 9 -1 9 4 0 6 5 11 11 11 6 0 8 -7 5 -16 -3 -8 -2 -12 4 -9 6 3 10 13 10 21
0 8 4 13 9 10 5 -3 14 1 21 9 14 17 26 19 35 6z"/>
<path d="M130 7121 c0 -6 4 -13 10 -16 6 -3 7 1 4 9 -7 18 -14 21 -14 7z"/>
<path d="M131 7065 c1 -19 18 -51 18 -35 0 8 -4 22 -9 30 -5 8 -9 11 -9 5z"/>
<path d="M141 6994 c0 -11 3 -14 6 -6 3 7 2 16 -1 19 -3 4 -6 -2 -5 -13z"/>
<path d="M115 6959 c-3 -4 2 -6 10 -5 21 3 28 13 10 13 -9 0 -18 -4 -20 -8z"/>
<path d="M114 6918 c-4 -7 -4 -10 1 -6 4 4 15 2 24 -5 14 -11 14 -10 2 6 -16
20 -18 21 -27 5z"/>
<path d="M110 6866 c0 -2 7 -7 16 -10 8 -3 12 -2 9 4 -6 10 -25 14 -25 6z"/>
<path d="M125 6680 c-3 -6 1 -7 9 -4 18 7 21 14 7 14 -6 0 -13 -4 -16 -10z"/>
<path d="M120 6640 c8 -5 20 -10 25 -10 6 0 3 5 -5 10 -8 5 -19 10 -25 10 -5
0 -3 -5 5 -10z"/>
<path d="M136 6572 c-2 -4 -1 -14 4 -22 7 -11 9 -9 7 8 -1 24 -3 26 -11 14z"/>
<path d="M141 6514 c0 -11 3 -14 6 -6 3 7 2 16 -1 19 -3 4 -6 -2 -5 -13z"/>
<path d="M115 6479 c-3 -4 2 -6 10 -5 21 3 28 13 10 13 -9 0 -18 -4 -20 -8z"/>
<path d="M114 6438 c-4 -7 -4 -10 1 -6 4 4 15 2 24 -5 14 -11 14 -10 2 6 -16
20 -18 21 -27 5z"/>
<path d="M110 6386 c0 -2 7 -7 16 -10 8 -3 12 -2 9 4 -6 10 -25 14 -25 6z"/>
<path d="M141 6034 c0 -11 3 -14 6 -6 3 7 2 16 -1 19 -3 4 -6 -2 -5 -13z"/>
<path d="M115 5999 c-3 -4 2 -6 10 -5 21 3 28 13 10 13 -9 0 -18 -4 -20 -8z"/>
<path d="M114 5958 c-4 -7 -4 -10 1 -6 4 4 15 2 24 -5 14 -11 14 -10 2 6 -16
20 -18 21 -27 5z"/>
<path d="M110 5906 c0 -2 7 -7 16 -10 8 -3 12 -2 9 4 -6 10 -25 14 -25 6z"/>
<path d="M125 5720 c-3 -6 1 -7 9 -4 18 7 21 14 7 14 -6 0 -13 -4 -16 -10z"/>
<path d="M120 5680 c8 -5 20 -10 25 -10 6 0 3 5 -5 10 -8 5 -19 10 -25 10 -5
0 -3 -5 5 -10z"/>
<path d="M136 5612 c-2 -4 -1 -14 4 -22 7 -11 9 -9 7 8 -1 24 -3 26 -11 14z"/>
<path d="M141 5554 c0 -11 3 -14 6 -6 3 7 2 16 -1 19 -3 4 -6 -2 -5 -13z"/>
<path d="M115 5519 c-3 -4 2 -6 10 -5 21 3 28 13 10 13 -9 0 -18 -4 -20 -8z"/>
<path d="M114 5478 c-4 -7 -4 -10 1 -6 4 4 15 2 24 -5 14 -11 14 -10 2 6 -16
20 -18 21 -27 5z"/>
<path d="M110 5426 c0 -2 7 -7 16 -10 8 -3 12 -2 9 4 -6 10 -25 14 -25 6z"/>
<path d="M141 5074 c0 -11 3 -14 6 -6 3 7 2 16 -1 19 -3 4 -6 -2 -5 -13z"/>
<path d="M115 5039 c-3 -4 2 -6 10 -5 21 3 28 13 10 13 -9 0 -18 -4 -20 -8z"/>
<path d="M114 4998 c-4 -7 -4 -10 1 -6 4 4 15 2 24 -5 14 -11 14 -10 2 6 -16
20 -18 21 -27 5z"/>
<path d="M110 4946 c0 -2 7 -7 16 -10 8 -3 12 -2 9 4 -6 10 -25 14 -25 6z"/>
<path d="M125 4760 c-3 -6 1 -7 9 -4 18 7 21 14 7 14 -6 0 -13 -4 -16 -10z"/>
<path d="M120 4720 c8 -5 20 -10 25 -10 6 0 3 5 -5 10 -8 5 -19 10 -25 10 -5
0 -3 -5 5 -10z"/>
<path d="M136 4652 c-2 -4 -1 -14 4 -22 7 -11 9 -9 7 8 -1 24 -3 26 -11 14z"/>
<path d="M141 4594 c0 -11 3 -14 6 -6 3 7 2 16 -1 19 -3 4 -6 -2 -5 -13z"/>
<path d="M115 4559 c-3 -4 2 -6 10 -5 21 3 28 13 10 13 -9 0 -18 -4 -20 -8z"/>
<path d="M114 4518 c-4 -7 -4 -10 1 -6 4 4 15 2 24 -5 14 -11 14 -10 2 6 -16
20 -18 21 -27 5z"/>
<path d="M140 4475 c-7 -9 -11 -17 -9 -20 3 -2 10 5 17 15 14 24 10 26 -8 5z"/>
<path d="M135 4289 c-4 -6 -5 -12 -2 -15 2 -3 7 2 10 11 7 17 1 20 -8 4z"/>
<path d="M110 4226 c0 -2 7 -7 16 -10 8 -3 12 -2 9 4 -6 10 -25 14 -25 6z"/>
<path d="M106 4118 c3 -5 9 -7 12 -4 3 3 12 0 21 -6 13 -10 14 -10 4 2 -15 16
-46 23 -37 8z"/>
<path d="M135 3929 c-4 -6 -5 -12 -2 -15 2 -3 7 2 10 11 7 17 1 20 -8 4z"/>
<path d="M139 3793 c-13 -16 -12 -17 4 -4 9 7 17 15 17 17 0 8 -8 3 -21 -13z"/>
<path d="M133 3692 c2 -12 6 -24 10 -28 3 -4 4 4 2 16 -6 30 -16 40 -12 12z"/>
<path d="M96 3682 c-3 -5 1 -9 9 -9 8 0 12 4 9 9 -3 4 -7 8 -9 8 -2 0 -6 -4
-9 -8z"/>
<path d="M126 3598 c3 -5 10 -6 15 -3 13 9 11 12 -6 12 -8 0 -12 -4 -9 -9z"/>
<path d="M110 3506 c0 -2 7 -7 16 -10 8 -3 12 -2 9 4 -6 10 -25 14 -25 6z"/>
<path d="M141 3154 c0 -11 3 -14 6 -6 3 7 2 16 -1 19 -3 4 -6 -2 -5 -13z"/>
<path d="M115 3119 c-3 -4 2 -6 10 -5 21 3 28 13 10 13 -9 0 -18 -4 -20 -8z"/>
<path d="M114 3078 c-4 -7 -4 -10 1 -6 4 4 15 2 24 -5 14 -11 14 -10 2 6 -16
20 -18 21 -27 5z"/>
<path d="M110 3026 c0 -2 7 -7 16 -10 8 -3 12 -2 9 4 -6 10 -25 14 -25 6z"/>
<path d="M125 2840 c-3 -6 1 -7 9 -4 18 7 21 14 7 14 -6 0 -13 -4 -16 -10z"/>
<path d="M120 2800 c8 -5 20 -10 25 -10 6 0 3 5 -5 10 -8 5 -19 10 -25 10 -5
0 -3 -5 5 -10z"/>
<path d="M136 2732 c-2 -4 -1 -14 4 -22 7 -11 9 -9 7 8 -1 24 -3 26 -11 14z"/>
<path d="M141 2674 c0 -11 3 -14 6 -6 3 7 2 16 -1 19 -3 4 -6 -2 -5 -13z"/>
<path d="M115 2639 c-3 -4 2 -6 10 -5 21 3 28 13 10 13 -9 0 -18 -4 -20 -8z"/>
<path d="M114 2598 c-4 -7 -4 -10 1 -6 4 4 15 2 24 -5 14 -11 14 -10 2 6 -16
20 -18 21 -27 5z"/>
<path d="M110 2546 c0 -2 7 -7 16 -10 8 -3 12 -2 9 4 -6 10 -25 14 -25 6z"/>
<path d="M141 2194 c0 -11 3 -14 6 -6 3 7 2 16 -1 19 -3 4 -6 -2 -5 -13z"/>
<path d="M115 2159 c-3 -4 2 -6 10 -5 21 3 28 13 10 13 -9 0 -18 -4 -20 -8z"/>
<path d="M114 2118 c-4 -7 -4 -10 1 -6 4 4 15 2 24 -5 14 -11 14 -10 2 6 -16
20 -18 21 -27 5z"/>
<path d="M110 2066 c0 -2 7 -7 16 -10 8 -3 12 -2 9 4 -6 10 -25 14 -25 6z"/>
<path d="M104 1838 c-4 -7 -3 -8 5 -4 6 4 20 2 29 -6 15 -12 16 -11 3 5 -16
20 -27 22 -37 5z"/>
<path d="M136 1755 c4 -8 8 -15 10 -15 2 0 4 7 4 15 0 8 -4 15 -10 15 -5 0 -7
-7 -4 -15z"/>
<path d="M141 1714 c0 -11 3 -14 6 -6 3 7 2 16 -1 19 -3 4 -6 -2 -5 -13z"/>
<path d="M115 1679 c-3 -4 2 -6 10 -5 21 3 28 13 10 13 -9 0 -18 -4 -20 -8z"/>
<path d="M114 1638 c-4 -7 -4 -10 1 -6 4 4 15 2 24 -5 14 -11 14 -10 2 6 -16
20 -18 21 -27 5z"/>
<path d="M110 1586 c0 -2 7 -7 16 -10 8 -3 12 -2 9 4 -6 10 -25 14 -25 6z"/>
<path d="M141 1234 c0 -11 3 -14 6 -6 3 7 2 16 -1 19 -3 4 -6 -2 -5 -13z"/>
<path d="M115 1199 c-3 -4 2 -6 10 -5 21 3 28 13 10 13 -9 0 -18 -4 -20 -8z"/>
<path d="M114 1158 c-4 -7 -4 -10 1 -6 4 4 15 2 24 -5 14 -11 14 -10 2 6 -16
20 -18 21 -27 5z"/>
<path d="M110 1106 c0 -2 7 -7 16 -10 8 -3 12 -2 9 4 -6 10 -25 14 -25 6z"/>
<path d="M125 920 c-3 -6 1 -7 9 -4 18 7 21 14 7 14 -6 0 -13 -4 -16 -10z"/>
<path d="M120 880 c8 -5 20 -10 25 -10 6 0 3 5 -5 10 -8 5 -19 10 -25 10 -5 0
-3 -5 5 -10z"/>
<path d="M136 812 c-2 -4 -1 -14 4 -22 7 -11 9 -9 7 8 -1 24 -3 26 -11 14z"/>
<path d="M141 754 c0 -11 3 -14 6 -6 3 7 2 16 -1 19 -3 4 -6 -2 -5 -13z"/>
<path d="M115 719 c-3 -4 2 -6 10 -5 21 3 28 13 10 13 -9 0 -18 -4 -20 -8z"/>
<path d="M114 678 c-4 -7 -4 -10 1 -6 4 4 15 2 24 -5 14 -11 14 -10 2 6 -16
20 -18 21 -27 5z"/>
<path d="M140 635 c-7 -9 -11 -17 -9 -20 3 -2 10 5 17 15 14 24 10 26 -8 5z"/>
<path d="M155 520 c-3 -6 1 -7 9 -4 18 7 21 14 7 14 -6 0 -13 -4 -16 -10z"/>
<path d="M104 398 c-4 -7 -3 -8 5 -4 6 4 20 2 29 -6 15 -12 16 -11 3 5 -16 20
-27 22 -37 5z"/>
<path d="M145 280 c-3 -6 1 -7 9 -4 18 7 21 14 7 14 -6 0 -13 -4 -16 -10z"/>
<path d="M134 249 c-3 -6 -2 -15 3 -20 5 -5 9 -1 9 11 0 23 -2 24 -12 9z"/>
<path d="M9564 246 c-10 -8 -16 -18 -11 -22 4 -4 7 -2 7 6 0 9 4 10 13 2 10
-8 13 -6 13 9 0 10 -1 19 -1 19 -1 0 -10 -6 -21 -14z"/>
<path d="M184 195 c-18 -14 -18 -15 0 -9 10 4 21 1 26 -7 5 -7 11 -11 14 -9 2
3 -1 13 -8 22 -11 16 -15 16 -32 3z"/>
<path d="M9534 203 c3 -3 17 -7 32 -9 14 -1 23 0 20 3 -3 4 -18 8 -32 9 -14 2
-24 0 -20 -3z"/>
<path d="M9510 180 c0 -5 7 -6 17 -3 12 5 14 3 8 -7 -5 -9 -4 -11 4 -6 6 4 9
12 6 17 -8 12 -35 12 -35 -1z"/>
<path d="M156 142 c-3 -4 4 -9 15 -9 23 -2 25 3 4 10 -8 4 -16 3 -19 -1z"/>
<path d="M9516 134 c-8 -20 -8 -24 2 -24 4 0 8 9 9 20 2 24 -3 26 -11 4z"/>
<path d="M175 100 c3 -5 8 -10 11 -10 2 0 4 5 4 10 0 6 -5 10 -11 10 -5 0 -7
-4 -4 -10z"/>
<path d="M220 96 c0 -2 7 -6 15 -10 8 -3 15 -1 15 4 0 6 -7 10 -15 10 -8 0
-15 -2 -15 -4z"/>
<path d="M257 75 c-6 -15 10 -32 20 -21 4 3 1 6 -5 6 -6 0 -9 7 -6 15 4 8 4
15 1 15 -3 0 -7 -7 -10 -15z"/>
<path d="M9470 60 c0 -5 5 -10 10 -10 6 0 10 5 10 10 0 6 -4 10 -10 10 -5 0
-10 -4 -10 -10z"/>
<path d="M234 46 c1 -8 5 -18 8 -22 4 -3 5 1 4 10 -1 8 -5 18 -8 22 -4 3 -5
-1 -4 -10z"/>
<path d="M196 33 c-6 -14 -5 -15 5 -6 7 7 10 15 7 18 -3 3 -9 -2 -12 -12z"/>
<path d="M270 30 c-8 -5 -10 -10 -5 -10 6 0 17 5 25 10 8 5 11 10 5 10 -5 0
-17 -5 -25 -10z"/>
<path d="M295 10 c3 -5 8 -10 11 -10 2 0 4 5 4 10 0 6 -5 10 -11 10 -5 0 -7
-4 -4 -10z"/>
<path d="M9366 12 c-2 -4 4 -8 14 -8 10 0 16 4 14 8 -7 10 -21 10 -28 0z"/>
</g>
</svg>
